<svg viewBox="0 0 64 64" xmlns="http://www.w3.org/2000/svg"><path d="m49 11v13a2 2 0 0 1 -2 2h-2a6 6 0 0 1 -2.58-.58l-.42-.19a24.4 24.4 0 0 0 -4-1.49 19.6 19.6 0 0 0 -5.23-.74h-1.54a4.17 4.17 0 0 1 -4.23-4v-.19a4 4 0 0 1 4-3.81h-16l6.24-6.24a6 6 0 0 1 4.25-1.76h19.51a4 4 0 0 1 4 4z" fill="#ffe27a"/><path d="m59 7.4v19.2a2.23 2.23 0 0 1 -2 2.4h-6a2.23 2.23 0 0 1 -2-2.4v-19.2a2.23 2.23 0 0 1 2-2.4h6a2.23 2.23 0 0 1 2 2.4z" fill="#4c9cd6"/><path d="m56 5v18.6a2.23 2.23 0 0 1 -2 2.4h-5v-18.6a2.23 2.23 0 0 1 2-2.4z" fill="#70b7e5"/><path d="m42 14a1 1 0 0 1 -1 1h-26a6.84 6.84 0 0 1 4.83-2h21.17a1 1 0 0 1 1 1z" fill="#f6b545"/><path d="m32.77 23h-1.54a4.17 4.17 0 0 1 -4.23-4h-7a4 4 0 0 1 -4 4v28h22v-27.26a19.6 19.6 0 0 0 -5.23-.74zm1.13 20c-.55 2.84-3.43 5-6.9 5s-6.35-2.16-6.89-5a4.14 4.14 0 0 1 -.11-1c0-3.31 3.13-6 7-6s7 2.69 7 6a4.71 4.71 0 0 1 -.1 1z" fill="#3bb54a"/><path d="m49 51v4a4 4 0 0 1 -4 4h-36a4 4 0 0 1 -4-4v-4a4 4 0 0 0 4 4h36a4 4 0 0 0 4-4z" fill="#494a52"/><path d="m49 47v4a4 4 0 0 1 -4 4h-36a4 4 0 0 1 -4-4v-4a4 4 0 0 1 4-4h3v8h30v-8h3a4 4 0 0 1 4 4z" fill="#595a66"/><path d="m31 15a4 4 0 0 0 -4 3.81v.19h-7a4 4 0 0 1 -4 4v28h-4v-32a3.72 3.72 0 0 1 .15-1.06 4 4 0 0 1 3.85-2.94z" fill="#0e9347"/><path d="m34 42a4.71 4.71 0 0 1 -.1 1c-.55 2.84-3.43 5-6.9 5s-6.35-2.16-6.89-5a4.14 4.14 0 0 1 -.11-1c0-3.31 3.13-6 7-6s7 2.69 7 6z" fill="#89c763"/><path d="m42 25.23v25.77h-4v-27.26a24.4 24.4 0 0 1 4 1.49z" fill="#0e9347"/><path d="m45 52h-36a1 1 0 0 1 0-2h36a1 1 0 0 1 0 2z" fill="#494a52"/></svg>